<?xml version="1.0" standalone="no"?>
<!DOCTYPE svg PUBLIC "-//W3C//DTD SVG 20010904//EN"
 "http://www.w3.org/TR/2001/REC-SVG-20010904/DTD/svg10.dtd">
<svg version="1.0" xmlns="http://www.w3.org/2000/svg"
 width="1222.000000pt" height="1222.000000pt" viewBox="0 0 1222.000000 1222.000000"
 preserveAspectRatio="xMidYMid meet">
<metadata>
Created by potrace 1.14, written by Peter Selinger 2001-2017
</metadata>
<g transform="translate(0.000000,1222.000000) scale(0.100000,-0.100000)"
fill="#000000" stroke="none">
<path d="M5785 10899 c-1294 -106 -2472 -683 -3327 -1628 l-85 -93 -219 27
c-344 42 -835 129 -1021 179 -29 8 -53 11 -53 6 0 -4 18 -63 40 -131 39 -124
39 -124 165 -289 70 -91 130 -166 133 -167 4 -1 32 -4 63 -8 l55 -6 30 -122
29 -121 74 -91 c40 -49 83 -94 94 -98 12 -4 23 -9 24 -11 2 -1 -35 -76 -80
-167 -301 -594 -480 -1241 -528 -1908 -15 -206 -6 -707 15 -881 22 -173 42
-303 72 -453 13 -70 22 -132 19 -137 -3 -5 6 -55 20 -112 181 -717 525 -1392
1001 -1964 816 -982 1966 -1611 3234 -1768 336 -42 805 -46 1130 -11 1086 117
2075 566 2880 1307 670 617 1182 1459 1419 2334 344 1268 184 2612 -445 3756
l-48 87 55 58 56 58 23 123 24 122 32 0 c26 0 42 12 103 80 39 44 103 116 142
160 l72 80 28 117 c15 65 27 119 25 120 -2 2 -51 -8 -110 -22 -197 -46 -561
-102 -923 -140 l-63 -7 -52 59 c-439 491 -981 899 -1571 1183 -517 248 -1051
400 -1637 465 -171 19 -728 28 -895 14z m161 -4268 c9 -10 38 -12 439 -29 157
-6 220 -13 248 -25 37 -16 40 -16 87 8 27 14 56 25 65 25 8 0 122 -58 252
-128 336 -182 666 -354 1048 -546 252 -127 332 -172 337 -189 8 -23 68 -696
68 -759 0 -31 -3 -35 -20 -31 -12 3 -31 26 -45 53 -22 43 -30 50 -102 79 l-78
32 -36 -42 c-32 -37 -40 -41 -65 -35 -71 17 -81 26 -111 98 -22 55 -38 78 -73
105 -30 23 -51 32 -65 29 -11 -3 -42 -6 -68 -6 l-48 0 53 -77 c28 -43 69 -100
90 -126 21 -27 36 -52 33 -57 -11 -18 -101 -31 -145 -21 -65 15 -65 15 -85
-28 l-18 -40 -60 31 c-34 17 -96 41 -140 53 -43 13 -102 38 -130 57 -29 19
-88 44 -132 57 -44 12 -87 24 -95 26 -8 3 -21 1 -29 -4 -11 -7 -6 -19 26 -57
46 -56 68 -94 54 -94 -5 0 -79 11 -164 24 l-155 25 -101 82 c-85 70 -123 93
-239 145 -75 33 -176 83 -223 111 -84 49 -90 51 -240 72 l-154 22 -145 -50
c-80 -28 -146 -51 -147 -51 0 0 8 23 18 51 11 28 19 53 17 54 -2 2 -86 -49
-188 -112 -170 -106 -198 -120 -343 -169 -127 -43 -171 -54 -222 -54 l-65 0
-6 40 c-4 22 -10 43 -15 46 -5 3 -75 -11 -156 -30 -82 -19 -187 -44 -235 -55
l-87 -20 -43 44 -43 45 -120 -45 c-108 -41 -268 -75 -282 -61 -8 7 27 530 35
537 4 3 63 32 132 64 425 197 1026 517 1525 812 126 75 129 76 169 59 31 -13
37 -12 92 16 33 16 63 34 69 39 12 12 48 12 61 0z m3399 -1296 c328 -147 634
-270 935 -376 195 -68 216 -87 56 -49 -47 11 -150 24 -228 30 -209 16 -367 54
-445 107 -21 14 -91 41 -155 59 -65 18 -148 44 -185 58 -38 14 -86 29 -108 34
l-40 8 -12 79 c-16 108 -16 138 0 132 6 -3 89 -40 182 -82z m-6181 -140 c-9
-83 -18 -152 -21 -155 -6 -6 -62 -5 -293 5 l-175 7 -226 -74 -225 -74 -286 30
c-221 23 -283 33 -270 41 28 19 182 81 257 105 52 16 112 24 230 31 266 14
573 83 950 212 39 14 71 24 72 23 1 -1 -5 -69 -13 -151z"/>
</g>
</svg>
